<svg width="20" height="20" viewBox="0 0 20 20" fill="none" xmlns="http://www.w3.org/2000/svg">
<path d="M14.0832 18.9583H5.91659C4.14992 18.9583 2.70825 17.5166 2.70825 15.75V4.24996C2.70825 2.4833 4.14992 1.04163 5.91659 1.04163H14.0832C15.8499 1.04163 17.2916 2.4833 17.2916 4.24996V15.75C17.2916 17.5166 15.8499 18.9583 14.0832 18.9583ZM5.91659 2.29163C4.84159 2.29163 3.95825 3.16663 3.95825 4.24996V15.75C3.95825 16.825 4.83326 17.7083 5.91659 17.7083H14.0832C15.1582 17.7083 16.0416 16.8333 16.0416 15.75V4.24996C16.0416 3.17496 15.1666 2.29163 14.0832 2.29163H5.91659Z" fill="currentColor"/>
<path d="M15.4166 11.4583H4.58325C3.54992 11.4583 2.70825 10.6166 2.70825 9.58329V7.91663C2.70825 6.88329 3.54992 6.04163 4.58325 6.04163H15.4166C16.4499 6.04163 17.2916 6.88329 17.2916 7.91663V9.58329C17.2916 10.6166 16.4499 11.4583 15.4166 11.4583ZM4.58325 7.29163C4.24159 7.29163 3.95825 7.57496 3.95825 7.91663V9.58329C3.95825 9.92496 4.24159 10.2083 4.58325 10.2083H15.4166C15.7583 10.2083 16.0416 9.92496 16.0416 9.58329V7.91663C16.0416 7.57496 15.7583 7.29163 15.4166 7.29163H4.58325Z" fill="currentColor"/>
<path d="M6.66667 15.6249C6.39167 15.6249 6.125 15.5166 5.93333 15.3166C5.88333 15.2749 5.84167 15.2166 5.80001 15.1582C5.76667 15.1082 5.73334 15.0416 5.70834 14.9832C5.67501 14.9166 5.65834 14.8499 5.64167 14.7832C5.63334 14.7166 5.625 14.6499 5.625 14.5832C5.625 14.5166 5.63334 14.4499 5.64167 14.3832C5.65834 14.3166 5.67501 14.2499 5.70834 14.1832C5.73334 14.1249 5.76667 14.0582 5.80001 14.0082C5.84167 13.9499 5.88333 13.8916 5.93333 13.8499C6.31666 13.4582 7.00834 13.4582 7.4 13.8499C7.45 13.8916 7.49166 13.9499 7.53333 14.0082C7.56666 14.0582 7.59999 14.1249 7.62499 14.1832C7.65833 14.2499 7.675 14.3166 7.69166 14.3832C7.7 14.4499 7.70833 14.5166 7.70833 14.5832C7.70833 14.6499 7.7 14.7166 7.69166 14.7832C7.675 14.8499 7.65833 14.9166 7.62499 14.9832C7.59999 15.0416 7.56666 15.1082 7.53333 15.1582C7.49166 15.2166 7.45 15.2749 7.4 15.3166C7.20834 15.5166 6.94167 15.6249 6.66667 15.6249Z" fill="currentColor"/>
<path d="M13.3334 15.6249C13.0584 15.6249 12.7917 15.5166 12.6001 15.3166C12.4001 15.1249 12.2917 14.8582 12.2917 14.5832C12.2917 14.3082 12.4001 14.0416 12.6001 13.8499C12.9834 13.4582 13.6834 13.4582 14.0668 13.8499C14.2668 14.0416 14.3751 14.3082 14.3751 14.5832C14.3751 14.8582 14.2668 15.1249 14.0668 15.3166C13.8751 15.5166 13.6084 15.6249 13.3334 15.6249Z" fill="currentColor"/>
<path d="M12.0834 4.79163H7.91675C7.57508 4.79163 7.29175 4.50829 7.29175 4.16663C7.29175 3.82496 7.57508 3.54163 7.91675 3.54163H12.0834C12.4251 3.54163 12.7084 3.82496 12.7084 4.16663C12.7084 4.50829 12.4251 4.79163 12.0834 4.79163Z" fill="currentColor"/>
</svg>
