<svg width="20" height="20" viewBox="0 0 20 20" fill="none" xmlns="http://www.w3.org/2000/svg">
<path d="M18.3334 7.70837H1.66675C1.32508 7.70837 1.04175 7.42504 1.04175 7.08337C1.04175 6.74171 1.32508 6.45837 1.66675 6.45837H18.3334C18.6751 6.45837 18.9584 6.74171 18.9584 7.08337C18.9584 7.42504 18.6751 7.70837 18.3334 7.70837Z" fill="currentColor"/>
<path d="M6.66667 14.375H5C4.65833 14.375 4.375 14.0917 4.375 13.75C4.375 13.4083 4.65833 13.125 5 13.125H6.66667C7.00833 13.125 7.29167 13.4083 7.29167 13.75C7.29167 14.0917 7.00833 14.375 6.66667 14.375Z" fill="currentColor"/>
<path d="M12.0833 14.375H8.75C8.40833 14.375 8.125 14.0917 8.125 13.75C8.125 13.4083 8.40833 13.125 8.75 13.125H12.0833C12.425 13.125 12.7083 13.4083 12.7083 13.75C12.7083 14.0917 12.425 14.375 12.0833 14.375Z" fill="currentColor"/>
<path d="M14.6334 17.7083H5.36675C2.05008 17.7083 1.04175 16.7083 1.04175 13.425V6.57496C1.04175 3.29163 2.05008 2.29163 5.36675 2.29163H14.6251C17.9417 2.29163 18.9501 3.29163 18.9501 6.57496V13.4166C18.9584 16.7083 17.9501 17.7083 14.6334 17.7083ZM5.36675 3.54163C2.75008 3.54163 2.29175 3.99163 2.29175 6.57496V13.4166C2.29175 16 2.75008 16.45 5.36675 16.45H14.6251C17.2417 16.45 17.7001 16 17.7001 13.4166V6.57496C17.7001 3.99163 17.2417 3.54163 14.6251 3.54163H5.36675Z" fill="currentColor"/>
</svg>
