<svg width="31" height="30" viewBox="0 0 31 30" fill="none" xmlns="http://www.w3.org/2000/svg">
<path d="M15.4 28.4375C8.00002 28.4375 1.96252 22.4125 1.96252 15C1.96252 7.5875 8.00002 1.5625 15.4 1.5625C22.8 1.5625 28.8375 7.5875 28.8375 15C28.8375 22.4125 22.8125 28.4375 15.4 28.4375ZM15.4 3.4375C9.02502 3.4375 3.83752 8.625 3.83752 15C3.83752 21.375 9.02502 26.5625 15.4 26.5625C21.775 26.5625 26.9625 21.375 26.9625 15C26.9625 8.625 21.775 3.4375 15.4 3.4375Z" fill="currentColor"/>
<path d="M20.4 15.9375H10.4C9.88752 15.9375 9.46252 15.5125 9.46252 15C9.46252 14.4875 9.88752 14.0625 10.4 14.0625H20.4C20.9125 14.0625 21.3375 14.4875 21.3375 15C21.3375 15.5125 20.925 15.9375 20.4 15.9375Z" fill="currentColor"/>
</svg>
