<svg width="31" height="30" viewBox="0 0 31 30" fill="none" xmlns="http://www.w3.org/2000/svg">
<path d="M15.5 28.4375C8.0875 28.4375 2.0625 22.4125 2.0625 15C2.0625 7.5875 8.0875 1.5625 15.5 1.5625C22.9125 1.5625 28.9375 7.5875 28.9375 15C28.9375 22.4125 22.9125 28.4375 15.5 28.4375ZM15.5 3.4375C9.125 3.4375 3.9375 8.625 3.9375 15C3.9375 21.375 9.125 26.5625 15.5 26.5625C21.875 26.5625 27.0625 21.375 27.0625 15C27.0625 8.625 21.875 3.4375 15.5 3.4375Z" fill="currentColor"/>
<path d="M20.5 15.9375H10.5C9.9875 15.9375 9.5625 15.5125 9.5625 15C9.5625 14.4875 9.9875 14.0625 10.5 14.0625H20.5C21.0125 14.0625 21.4375 14.4875 21.4375 15C21.4375 15.5125 21.0125 15.9375 20.5 15.9375Z" fill="currentColor"/>
<path d="M15.5 20.9375C14.9875 20.9375 14.5625 20.5125 14.5625 20V10C14.5625 9.4875 14.9875 9.0625 15.5 9.0625C16.0125 9.0625 16.4375 9.4875 16.4375 10V20C16.4375 20.5125 16.0125 20.9375 15.5 20.9375Z" fill="currentColor"/>
</svg>
