<svg width="28" height="29" viewBox="0 0 28 29" fill="none" xmlns="http://www.w3.org/2000/svg">
<path d="M13.4167 25.8749C6.82501 25.8749 1.45834 20.5083 1.45834 13.9166C1.45834 7.32492 6.82501 1.95825 13.4167 1.95825C20.0083 1.95825 25.375 7.32492 25.375 13.9166C25.375 20.5083 20.0083 25.8749 13.4167 25.8749ZM13.4167 3.70825C7.78168 3.70825 3.20834 8.29325 3.20834 13.9166C3.20834 19.5399 7.78168 24.1249 13.4167 24.1249C19.0517 24.1249 23.625 19.5399 23.625 13.9166C23.625 8.29325 19.0517 3.70825 13.4167 3.70825Z" fill="currentColor"/>
<path d="M25.6667 27.0416C25.445 27.0416 25.2233 26.9599 25.0483 26.7849L22.715 24.4516C22.3767 24.1133 22.3767 23.5533 22.715 23.2149C23.0533 22.8766 23.6133 22.8766 23.9517 23.2149L26.285 25.5483C26.6233 25.8866 26.6233 26.4466 26.285 26.7849C26.11 26.9599 25.8883 27.0416 25.6667 27.0416Z" fill="currentColor"/>
</svg>
